<svg xmlns="http://www.w3.org/2000/svg" viewBox="0 0 457 457" id="vector">
    <g id="group" transform="translate(88.97637 88.98556) scale(0.61096424 0.6111111)">
        <path d="M228.71,0.11A228.71,228.71 0,0 1,457.42 228.82,228.71 228.71,0 1,1 228.71,0.11Z" fill="#000">

        </path>
        <path id="path"
            d="M 228.71 0.11 C 289.344 0.11 347.557 24.223 390.432 67.098 C 433.307 109.973 457.42 168.186 457.42 228.82 C 457.42 289.454 433.307 347.667 390.432 390.542 C 347.557 433.417 289.344 457.53 228.71 457.53 C 168.076 457.53 109.863 433.417 66.988 390.542 C 24.113 347.667 0 289.454 0 228.82 C 0 168.186 24.113 109.973 66.988 67.098 C 109.863 24.223 168.076 0.11 228.71 0.11 Z"
            fill="none" />
        <path id="path_1"
            d="M 249.97 405.98 C 163.87 405.98 94.06 336.18 94.06 250.07 C 94.06 163.97 163.86 94.16 249.97 94.16 C 336.07 94.16 405.88 163.96 405.88 250.07 C 405.88 336.17 336.08 405.98 249.97 405.98 Z M 259.48 389.81 C 187.15 389.81 128.51 331.17 128.51 258.84 C 128.51 186.51 187.15 127.87 259.48 127.87 C 331.81 127.87 390.45 186.51 390.45 258.84 C 390.45 331.17 331.81 389.81 259.48 389.81 Z"
            fill="#ffffff" fill-rule="evenodd" />
        <path id="path_2"
            d="M 294.99 291.55 C 293.91 294.82 287.62 318.31 258.03 330.29 C 218.66 346.23 207.89 315.85 203.88 290.54 C 198.33 255.52 213.71 196.73 246.41 195.44 C 284.29 193.95 292.05 263.68 294.99 291.55 Z M 299.16 324.19 C 300.55 370.4 283.52 399.94 215.39 382.21 C 284.87 422.07 377.11 350.47 381.74 305.9 C 359.46 349.41 335.99 335.83 325.72 295.02 C 337.35 281.83 352.45 266.86 360.23 250.61 C 358.41 243.78 356.75 236.18 349.12 233 C 344.89 231.24 339.09 229.77 338.19 230.58 C 327.29 240.29 324.65 244.84 317.03 254.43 C 303.32 211.12 279.43 180.46 241.18 183.71 C 169.04 189.85 154.58 280.57 185.29 326.19 C 209.51 362.16 271.59 350.25 299.16 324.19 Z"
            fill="#ffffff" fill-rule="evenodd" />
        <path id="path_3"
            d="M 338.19 230.57 L 360.23 250.6 C 361.29 248.52 362.44 246.45 363.88 244.34 C 376.92 225.31 389.54 219.84 376.17 221.52 C 367.27 222.64 356.91 235.43 351.86 231.87 C 348.47 229.48 344.36 224.4 338.18 230.57 Z"
            fill="#cccc99" fill-rule="evenodd" />
        <path id="path_4" d="M 337.37 253.01 L 340.53 243.92 L 326.62 252.74 Z" fill="#cccc99" fill-rule="evenodd" />
    </g>
</svg>